<?xml version="1.0" encoding="utf-8"?>
<!-- Generator: Adobe Illustrator 26.4.1, SVG Export Plug-In . SVG Version: 6.00 Build 0)  -->
<svg version="1.1" id="Capa_1" xmlns="http://www.w3.org/2000/svg" xmlns:xlink="http://www.w3.org/1999/xlink" x="0px" y="0px"
	 viewBox="0 0 14400 14400" style="enable-background:new 0 0 14400 14400;" xml:space="preserve">
<style type="text/css">
	.st0{fill-rule:evenodd;clip-rule:evenodd;}
</style>
<g transform="matrix(1.239222,0,0,1.845425,100.580524,3491.492021)">
	<path class="st0" d="M5669.3,2077.6h50.1c85.8,0,155.4,46.8,155.4,104.2s-69.6,104.2-155.4,104.2h-300.8
		c-85.8,0-155.4-46.8-155.4-104.2s69.6-104.2,155.4-104.2h50.1v37.2c0,37.2,44.9,67.4,100.2,67.4s100.2-30.2,100.2-67.4v-37.2
		H5669.3z"/>
</g>
<g transform="matrix(1.239222,0,0,-1.845425,100.580524,3816.382603)">
	<path class="st0" d="M5669.3-1763.3v37.2c0,37.2-44.9,67.4-100.2,67.4c-55.2,0-100.2-30.2-100.2-67.4v-37.2h-50.4
		c-85.8,0-155.4,46.8-155.4,104.2c0,57.4,69.6,104.2,155.4,104.2h300.5c85.8,0,155.4-46.8,155.4-104.2s-69.6-104.2-155.4-104.2
		H5669.3z"/>
</g>
<g transform="matrix(0.357798,0,0,0.703295,254.61238,2912.448163)">
	<path class="st0" d="M20775.6,6897.4c-78.8,88.7-284.3,128.1-458.8,88.4c-174.5-40.1-252.2-144.7-173.4-233.4
		c57.8-65.2,184.8-193.7,184.5-291.6c0-50.8-68.9-99-111.9-149.9c-61.1-71.8-104.9-144.7-104.9-216.5s43.8-144.7,104.9-216.5
		c43.1-50.4,111.6-97.9,111.9-148.4c0-33.1-18.8-70-40.5-106.4c-43.1-71.4-105.3-140.3-143.6-183.4
		c-79.2-88.7-1.8-193.3,172.7-233.8c174.2-40.1,380-0.7,459.2,87.6c47.1,53,121.9,137.3,174.9,225.3
		c43.4,71.8,71.4,145.4,71.1,210.6c0,71.4-43.8,144.3-105.3,215.8c-43.1,50.4-111.6,97.9-111.6,148.4c0,50.4,68.5,98.7,111.9,149.5
		c61.1,71.8,104.9,144.7,104.9,216.5C21022,6605.8,20861.4,6800.9,20775.6,6897.4z"/>
</g>
</svg>
